<?xml version="1.0" standalone="no"?><!DOCTYPE svg PUBLIC "-//W3C//DTD SVG 1.1//EN" "http://www.w3.org/Graphics/SVG/1.1/DTD/svg11.dtd"><svg class="icon" width="32px" height="32.00px" viewBox="0 0 1024 1024" version="1.1" xmlns="http://www.w3.org/2000/svg"><path fill="#1296db" d="M877.714286 0H146.285714a36.571429 36.571429 0 0 0-36.571428 36.571429v950.857142a36.571429 36.571429 0 0 0 36.571428 36.571429h731.428572a36.571429 36.571429 0 0 0 36.571428-36.571429V36.571429A36.571429 36.571429 0 0 0 877.714286 0z m-45.714286 941.714286h-640v-229.668572h111.908571c13.165714 37.449143 36.571429 71.168 67.510858 96.768a220.672 220.672 0 0 0 348.672-96.768h111.908571V640H662.381714l-5.924571 28.233143A147.748571 147.748571 0 0 1 512 786.285714c-69.924571 0-130.706286-49.737143-144.603429-118.052571l-5.851428-28.233143H191.926857V82.285714h640v859.428572zM292.571429 316.562286h438.857142a9.142857 9.142857 0 0 0 9.142858-9.142857v-54.857143A9.142857 9.142857 0 0 0 731.428571 243.419429H292.571429a9.142857 9.142857 0 0 0-9.142858 9.142857v54.857143c0 5.046857 4.096 9.142857 9.142858 9.142857z m0 182.857143h438.857142a9.142857 9.142857 0 0 0 9.142858-9.142858v-54.857142A9.142857 9.142857 0 0 0 731.428571 426.276571H292.571429a9.142857 9.142857 0 0 0-9.142858 9.142858v54.857142c0 5.046857 4.096 9.142857 9.142858 9.142858z"  fill-opacity=".65" /></svg>