<?xml version="1.0" standalone="no"?><!DOCTYPE svg PUBLIC "-//W3C//DTD SVG 1.1//EN" "http://www.w3.org/Graphics/SVG/1.1/DTD/svg11.dtd"><svg class="icon" width="32px" height="32.00px" viewBox="0 0 1024 1024" version="1.1" xmlns="http://www.w3.org/2000/svg"><path fill="#1296db" d="M581.12 512l349.866667-417.28a10.581333 10.581333 0 0 0-8.021334-17.408H816.554667a21.76 21.76 0 0 0-16.384 7.68L511.488 428.970667 222.72 84.906667a21.333333 21.333333 0 0 0-16.384-7.594667H100.010667a10.581333 10.581333 0 0 0-8.106667 17.493333L441.856 512 91.904 929.28a10.581333 10.581333 0 0 0 8.106667 17.408h106.410666a21.76 21.76 0 0 0 16.384-7.68l288.682667-344.064 288.682667 344.149333a21.333333 21.333333 0 0 0 16.384 7.594667h106.410666a10.581333 10.581333 0 0 0 8.106667-17.493333L581.034667 512z"  fill-opacity=".65" /></svg>