<?xml version="1.0" standalone="no"?><!DOCTYPE svg PUBLIC "-//W3C//DTD SVG 1.1//EN" "http://www.w3.org/Graphics/SVG/1.1/DTD/svg11.dtd"><svg class="icon" width="32px" height="32.00px" viewBox="0 0 1024 1024" version="1.1" xmlns="http://www.w3.org/2000/svg"><path fill="#1296db" d="M512 0a512 512 0 1 1 0 1024A512 512 0 0 1 512 0z m0 86.893714a425.179429 425.179429 0 0 0 0 850.212572A425.179429 425.179429 0 0 0 512 86.893714z m189.001143 235.154286c5.12 0 9.142857 4.096 9.142857 9.142857 0 2.194286-0.658286 4.388571-2.048 5.924572L559.396571 514.267429l148.48 177.005714a9.508571 9.508571 0 0 1 2.194286 5.997714c0 5.12-4.096 9.142857-9.142857 9.142857l-75.410286-0.365714L512 570.733714 398.482286 706.194286l-75.483429 0.292571a9.142857 9.142857 0 0 1-7.021714-15.067428l148.699428-177.005715L315.977143 337.188571a9.508571 9.508571 0 0 1-2.194286-5.924571c0-5.12 4.169143-9.142857 9.216-9.142857l75.483429 0.292571L512 457.874286l113.590857-135.387429z"  fill-opacity=".65" /></svg>