<?xml version="1.0" standalone="no"?><!DOCTYPE svg PUBLIC "-//W3C//DTD SVG 1.1//EN" "http://www.w3.org/Graphics/SVG/1.1/DTD/svg11.dtd"><svg class="icon" width="32px" height="32.00px" viewBox="0 0 1024 1024" version="1.1" xmlns="http://www.w3.org/2000/svg"><path fill="#1296db" d="M512 0a512 512 0 1 1 0 1024A512 512 0 0 1 512 0z m0 86.893714a425.179429 425.179429 0 0 0 0 850.212572A425.179429 425.179429 0 0 0 512 86.893714zM512 658.285714a54.857143 54.857143 0 1 1 0 109.714286A54.857143 54.857143 0 0 1 512 658.285714z m27.428571-402.285714c5.046857 0 9.142857 4.096 9.142858 9.142857v310.857143A9.142857 9.142857 0 0 1 539.428571 585.142857h-54.857142a9.142857 9.142857 0 0 1-9.142858-9.142857v-310.857143c0-5.046857 4.096-9.142857 9.142858-9.142857z"  fill-opacity=".65" /></svg>