<?xml version="1.0" standalone="no"?><!DOCTYPE svg PUBLIC "-//W3C//DTD SVG 1.1//EN" "http://www.w3.org/Graphics/SVG/1.1/DTD/svg11.dtd"><svg class="icon" width="32px" height="32.00px" viewBox="0 0 1024 1024" version="1.1" xmlns="http://www.w3.org/2000/svg"><path fill="#1296db" d="M932.571429 137.142857h-192v-73.142857A9.142857 9.142857 0 0 0 731.428571 54.857143h-64A9.142857 9.142857 0 0 0 658.285714 64v73.142857H365.714286v-73.142857A9.142857 9.142857 0 0 0 356.571429 54.857143H292.571429a9.142857 9.142857 0 0 0-9.142858 9.142857v73.142857H91.428571a36.571429 36.571429 0 0 0-36.571428 36.571429V932.571429a36.571429 36.571429 0 0 0 36.571428 36.571428h841.142858a36.571429 36.571429 0 0 0 36.571428-36.571428V173.714286a36.571429 36.571429 0 0 0-36.571428-36.571429z m-45.714286 749.714286H137.142857V452.534857h749.714286v434.322286z m-749.714286-512V219.428571h146.285714v54.857143c0 5.046857 4.096 9.142857 9.142858 9.142857h64A9.142857 9.142857 0 0 0 365.714286 274.285714V219.428571h292.571428v54.857143c0 5.046857 4.096 9.142857 9.142857 9.142857H731.428571a9.142857 9.142857 0 0 0 9.142858-9.142857V219.428571h146.285714v155.428572H137.142857z"  fill-opacity=".65" /></svg>