<?xml version="1.0" standalone="no"?><!DOCTYPE svg PUBLIC "-//W3C//DTD SVG 1.1//EN" "http://www.w3.org/Graphics/SVG/1.1/DTD/svg11.dtd"><svg class="icon" width="32px" height="32.00px" viewBox="0 0 1024 1024" version="1.1" xmlns="http://www.w3.org/2000/svg"><path fill="#1296db" d="M362.666667 252.928h98.56V704c0 5.888 4.778667 10.666667 10.666666 10.666667h79.957334a10.666667 10.666667 0 0 0 10.666666-10.666667V252.928H661.333333c8.96 0 13.824-10.24 8.362667-17.152L520.362667 46.592a10.666667 10.666667 0 0 0-16.725334 0L354.304 235.52a10.752 10.752 0 0 0 8.362667 17.322667z m637.354666 411.050667h-80.042666a10.666667 10.666667 0 0 0-10.666667 10.666666v205.397334H114.688V674.56a10.666667 10.666667 0 0 0-10.666667-10.666667H23.893333a10.666667 10.666667 0 0 0-10.666666 10.666667V938.666667a42.666667 42.666667 0 0 0 42.666666 42.666666h912.042667a42.666667 42.666667 0 0 0 42.666667-42.666666V674.645333a10.666667 10.666667 0 0 0-10.666667-10.666666z"  fill-opacity=".65" /></svg>