<?xml version="1.0" standalone="no"?><!DOCTYPE svg PUBLIC "-//W3C//DTD SVG 1.1//EN" "http://www.w3.org/Graphics/SVG/1.1/DTD/svg11.dtd"><svg class="icon" width="32px" height="32.00px" viewBox="0 0 1024 1024" version="1.1" xmlns="http://www.w3.org/2000/svg"><path fill="#1296db" d="M512 0a512 512 0 1 1 0 1024A512 512 0 0 1 512 0z m0 86.893714a425.179429 425.179429 0 0 0 0 850.212572A425.179429 425.179429 0 0 0 512 86.893714z m27.574857 159.963429c4.973714 0 9.142857 4.096 9.142857 9.142857v282.843429L711.68 656.676571c4.096 2.925714 4.973714 8.557714 2.048 12.8l-32.694857 44.617143a9.216 9.216 0 0 1-12.8 1.901715L479.232 578.194286a9.069714 9.069714 0 0 1-3.803429-7.460572V256c0-5.046857 4.096-9.142857 9.142858-9.142857z"  fill-opacity=".65" /></svg>