<?xml version="1.0" standalone="no"?><!DOCTYPE svg PUBLIC "-//W3C//DTD SVG 1.1//EN" "http://www.w3.org/Graphics/SVG/1.1/DTD/svg11.dtd"><svg class="icon" width="32px" height="32.00px" viewBox="0 0 1024 1024" version="1.1" xmlns="http://www.w3.org/2000/svg"><path fill="#1296db" d="M965.851429 166.034286l-64.512 50.468571A478.866286 478.866286 0 0 0 523.337143 31.963429 479.670857 479.670857 0 0 0 43.446857 511.414857 479.890286 479.890286 0 0 0 974.262857 676.425143a9.142857 9.142857 0 0 0-5.558857-11.702857l-64.804571-22.308572a9.142857 9.142857 0 0 0-11.556572 5.485715 391.021714 391.021714 0 0 1-90.989714 142.043428 390.582857 390.582857 0 0 1-277.796572 115.2A390.144 390.144 0 0 1 245.686857 789.942857a391.021714 391.021714 0 0 1-115.053714-278.089143 391.094857 391.094857 0 0 1 115.053714-278.016 390.582857 390.582857 0 0 1 277.796572-115.2 390.144 390.144 0 0 1 277.942857 115.2c11.264 11.337143 21.942857 23.332571 31.744 35.84l-68.827429 53.76a9.142857 9.142857 0 0 0 3.437714 16.091429l200.704 49.152a9.142857 9.142857 0 0 0 11.264-8.777143l0.950858-206.774857a9.216 9.216 0 0 0-14.848-7.094857z"  fill-opacity=".65" /></svg>