<?xml version="1.0" standalone="no"?><!DOCTYPE svg PUBLIC "-//W3C//DTD SVG 1.1//EN" "http://www.w3.org/Graphics/SVG/1.1/DTD/svg11.dtd"><svg class="icon" width="32px" height="32.00px" viewBox="0 0 1024 1024" version="1.1" xmlns="http://www.w3.org/2000/svg"><path fill="#1296db" d="M966.436571 903.460571L669.622857 606.646857c46.08-59.538286 70.948571-132.388571 70.948572-208.969143a340.845714 340.845714 0 0 0-100.425143-242.395428A340.333714 340.333714 0 0 0 397.677714 54.857143a340.845714 340.845714 0 0 0-242.395428 100.425143A340.114286 340.114286 0 0 0 54.857143 397.677714c0 91.574857 35.84 177.737143 100.425143 242.468572a340.114286 340.114286 0 0 0 242.395428 100.425143 340.114286 340.114286 0 0 0 208.822857-70.875429l296.813715 296.667429c3.657143 3.657143 9.581714 3.657143 13.238857 0l49.810286-49.737143a9.362286 9.362286 0 0 0 0-13.165715z m-387.657142-324.754285a254.610286 254.610286 0 0 1-181.101715 75.044571 254.610286 254.610286 0 0 1-181.028571-75.044571 254.610286 254.610286 0 0 1-74.971429-180.955429c0-68.388571 26.697143-132.754286 74.971429-181.028571a254.610286 254.610286 0 0 1 181.028571-75.044572c68.388571 0 132.754286 26.550857 181.028572 74.971429a254.610286 254.610286 0 0 1 75.044571 181.028571c0 68.388571-26.697143 132.754286-75.044571 181.028572z"  fill-opacity=".65" /></svg>