<?xml version="1.0" standalone="no"?><!DOCTYPE svg PUBLIC "-//W3C//DTD SVG 1.1//EN" "http://www.w3.org/Graphics/SVG/1.1/DTD/svg11.dtd"><svg class="icon" width="200px" height="200.00px" viewBox="0 0 1024 1024" version="1.1" xmlns="http://www.w3.org/2000/svg"><path fill="#eeeeee" d="M554.645714 625.782857H85.342857a42.662857 42.662857 0 0 0 0 85.337143h469.302857a42.662857 42.662857 0 0 0 0-85.337143z m413.04-142.251428l-162.822857-172.571429A21.337143 21.337143 0 0 0 768.005714 325.577143v374.662857a21.337143 21.337143 0 0 0 36.857143 14.628571l162.834286-172.788571a42.662857 42.662857 0 0 0-0.011429-58.548571zM554.645714 312.891429H85.342857a42.662857 42.662857 0 0 0 0 85.337142h469.302857a42.662857 42.662857 0 0 0 0-85.337142z m426.697143 625.771428H42.668571a42.662857 42.662857 0 0 0 0 85.337143h938.674286a42.662857 42.662857 0 0 0 0-85.337143z m0-938.662857H42.668571a42.662857 42.662857 0 0 0 0 85.337143h938.674286a42.662857 42.662857 0 0 0 0-85.337143z" /></svg>