<?xml version="1.0" standalone="no"?><!DOCTYPE svg PUBLIC "-//W3C//DTD SVG 1.1//EN" "http://www.w3.org/Graphics/SVG/1.1/DTD/svg11.dtd"><svg class="icon" width="32px" height="32.00px" viewBox="0 0 1024 1024" version="1.1" xmlns="http://www.w3.org/2000/svg"><path fill="#1296db" d="M947.785143 262.070857l-185.782857-185.782857A72.850286 72.850286 0 0 0 731.428571 57.929143V54.857143H91.428571a36.571429 36.571429 0 0 0-36.571428 36.571428v841.142858a36.571429 36.571429 0 0 0 36.571428 36.571428h841.142858a36.571429 36.571429 0 0 0 36.571428-36.571428V313.782857a72.923429 72.923429 0 0 0-21.357714-51.712zM365.714286 137.142857h292.571428V256H365.714286V137.142857z m521.142857 749.714286H137.142857V137.142857H292.571429V292.571429a36.571429 36.571429 0 0 0 36.571428 36.571428h365.714286A36.571429 36.571429 0 0 0 731.428571 292.571429V162.084571l155.428572 155.428572v569.344zM512 431.981714a164.571429 164.571429 0 1 0 0.073143 329.216A164.571429 164.571429 0 0 0 512 432.054857z m0 256a91.428571 91.428571 0 1 1 0-182.857143 91.428571 91.428571 0 0 1 0 182.857143z"  fill-opacity=".65" /></svg>