<?xml version="1.0" standalone="no"?><!DOCTYPE svg PUBLIC "-//W3C//DTD SVG 1.1//EN" "http://www.w3.org/Graphics/SVG/1.1/DTD/svg11.dtd"><svg class="icon" width="32px" height="32.00px" viewBox="0 0 1024 1024" version="1.1" xmlns="http://www.w3.org/2000/svg"><path fill="#1296db" d="M503.637333 710.656c4.266667 5.461333 12.458667 5.461333 16.725334 0l149.333333-188.928a10.666667 10.666667 0 0 0-8.362667-17.237333H562.517333V53.333333A10.666667 10.666667 0 0 0 551.850667 42.666667H471.893333a10.666667 10.666667 0 0 0-10.666666 10.666666v451.072H362.666667a10.666667 10.666667 0 0 0-8.362667 17.237334l149.333333 189.013333z m496.384-46.677333h-80.042666a10.666667 10.666667 0 0 0-10.666667 10.666666v205.397334H114.688V674.56a10.666667 10.666667 0 0 0-10.666667-10.666667H23.893333a10.666667 10.666667 0 0 0-10.666666 10.666667V938.666667a42.666667 42.666667 0 0 0 42.666666 42.666666h912.042667a42.666667 42.666667 0 0 0 42.666667-42.666666V674.645333a10.666667 10.666667 0 0 0-10.666667-10.666666z"  fill-opacity=".65" /></svg>