<?xml version="1.0" standalone="no"?><!DOCTYPE svg PUBLIC "-//W3C//DTD SVG 1.1//EN" "http://www.w3.org/Graphics/SVG/1.1/DTD/svg11.dtd"><svg class="icon" width="32px" height="32.00px" viewBox="0 0 1024 1024" version="1.1" xmlns="http://www.w3.org/2000/svg"><path fill="#1296db" d="M512 0a512 512 0 1 1 0 1024A512 512 0 0 1 512 0z m0 86.893714a425.179429 425.179429 0 0 0 0 850.212572A425.179429 425.179429 0 0 0 512 86.893714z m0 630.784a45.714286 45.714286 0 1 1 0 91.428572 45.714286 45.714286 0 0 1 0-91.428572z m0-475.428571c47.981714 0 93.257143 16.457143 127.561143 46.518857 35.620571 31.232 55.296 73.142857 55.149714 118.125714 0 66.048-43.52 125.44-110.957714 151.405715a55.222857 55.222857 0 0 0-35.328 51.2v25.892571a9.142857 9.142857 0 0 1-9.142857 9.216h-54.857143a9.142857 9.142857 0 0 1-9.142857-9.216v-24.502857a127.707429 127.707429 0 0 1 82.285714-120.905143c38.985143-14.994286 64.146286-47.542857 64.146286-83.090286 0-50.468571-49.225143-91.428571-109.714286-91.428571s-109.714286 40.96-109.714286 91.428571v8.630857a9.142857 9.142857 0 0 1-9.142857 9.142858h-54.857143a9.142857 9.142857 0 0 1-9.142857-9.142858v-8.704c0-44.909714 19.675429-86.820571 55.296-118.052571A193.243429 193.243429 0 0 1 512 242.322286z"  fill-opacity=".65" /></svg>