<?xml version="1.0" standalone="no"?><!DOCTYPE svg PUBLIC "-//W3C//DTD SVG 1.1//EN" "http://www.w3.org/Graphics/SVG/1.1/DTD/svg11.dtd"><svg class="icon" width="32px" height="32.00px" viewBox="0 0 1024 1024" version="1.1" xmlns="http://www.w3.org/2000/svg"><path fill="#1296db" d="M552.021333 32c7.082667 0 10.666667 3.584 10.666667 10.666667l-0.085333 418.645333h397.397333c7.082667 0 10.666667 3.584 10.666667 10.666667v80.042666c0 7.082667-3.584 10.666667-10.666667 10.666667l-397.397333-0.085333V981.333333c0 7.082667-3.413333 10.666667-10.581334 10.666667H471.893333c-7.082667 0-10.666667-3.584-10.666666-10.666667V562.602667H64c-7.082667 0-10.666667-3.413333-10.666667-10.581334V471.893333c0-7.082667 3.584-10.666667 10.666667-10.666666h397.312V42.666667c0-7.082667 3.584-10.666667 10.666667-10.666667h80.042666z"  fill-opacity=".65" /></svg>