<?xml version="1.0" standalone="no"?><!DOCTYPE svg PUBLIC "-//W3C//DTD SVG 1.1//EN" "http://www.w3.org/Graphics/SVG/1.1/DTD/svg11.dtd"><svg class="icon" width="32px" height="29.87px" viewBox="0 0 1097 1024" version="1.1" xmlns="http://www.w3.org/2000/svg"><path fill="#1296db" d="M1005.933714 479.232L569.490286 43.008l-29.257143-29.257143a35.620571 35.620571 0 0 0-50.102857 0L24.429714 479.232a72.192 72.192 0 0 0-21.211428 51.931429 72.996571 72.996571 0 0 0 73.289143 71.533714h47.981714v367.908571h781.385143V602.697143h49.005714a71.972571 71.972571 0 0 0 51.2-21.211429 71.826286 71.826286 0 0 0 21.138286-51.2 71.899429 71.899429 0 0 0-21.211429-51.053714z m-427.52 409.965714h-126.537143v-230.4h126.537143v230.4z m246.125715-367.908571v367.908571H650.752v-257.462857a45.202286 45.202286 0 0 0-45.202286-45.202286h-180.662857a45.202286 45.202286 0 0 0-45.202286 45.202286v257.462857H205.824v-367.908571H97.426286L515.291429 103.862857l26.112 26.112 391.68 391.460572h-108.544z"  fill-opacity=".65" /></svg>